<?xml version="1.0" standalone="no"?>
<!DOCTYPE svg PUBLIC "-//W3C//DTD SVG 20010904//EN"
 "http://www.w3.org/TR/2001/REC-SVG-20010904/DTD/svg10.dtd">
<svg version="1.0" xmlns="http://www.w3.org/2000/svg"
 width="272.000000pt" height="272.000000pt" viewBox="0 0 272.000000 272.000000"
 preserveAspectRatio="xMidYMid meet">
<metadata>
Created by potrace 1.14, written by Peter Selinger 2001-2017
</metadata>
<g transform="translate(0.000000,272.000000) scale(0.100000,-0.100000)"
fill="#000000" stroke="none">
<path d="M1293 2245 c-13 -6 -20 -15 -16 -19 4 -4 -10 -6 -32 -4 -26 2 -39 -1
-38 -9 1 -6 -4 -14 -12 -17 -9 -3 -12 0 -9 9 4 9 -1 12 -13 10 -10 -2 -26 -4
-37 -4 -15 -1 -16 -4 -7 -15 14 -17 6 -22 -34 -21 -30 0 -89 -41 -80 -55 6
-10 -30 -42 -38 -34 -3 4 -9 -5 -12 -19 -8 -29 -35 -58 -35 -38 0 21 -61 8
-90 -19 -14 -14 -25 -27 -24 -30 1 -3 -9 -6 -23 -5 -17 0 -35 -13 -59 -41 -32
-39 -34 -43 -19 -58 9 -9 22 -13 28 -9 7 4 6 -1 -2 -10 -10 -13 -17 -14 -26
-7 -9 8 -15 7 -18 -2 -4 -10 -6 -10 -6 1 -1 11 -4 11 -16 1 -8 -7 -15 -10 -15
-6 0 4 -11 -1 -25 -10 -14 -9 -22 -20 -19 -25 3 -5 0 -9 -6 -9 -6 0 -8 -5 -5
-10 3 -6 -1 -13 -9 -16 -9 -3 -13 -11 -9 -17 4 -6 0 -8 -9 -4 -22 8 -29 -26
-11 -52 8 -12 21 -21 29 -21 8 0 13 -4 10 -9 -4 -5 -17 -8 -31 -6 -14 1 -25
-2 -25 -8 0 -6 -3 -7 -7 -4 -8 9 -36 -30 -29 -41 3 -5 -4 -8 -16 -8 -29 1 -32
-17 -8 -45 12 -13 18 -18 14 -10 -4 9 -3 12 4 7 6 -4 9 -13 5 -21 -4 -11 -1
-13 13 -8 17 6 18 5 5 -11 -13 -16 -13 -18 0 -16 26 4 39 0 39 -11 0 -6 -7 -9
-15 -5 -24 9 -18 -11 10 -32 31 -25 32 -32 3 -31 -13 0 -17 3 -10 6 6 2 10 9
6 14 -8 14 -24 11 -24 -6 0 -8 -5 -15 -12 -15 -6 0 -8 -3 -5 -7 4 -3 -2 -12
-13 -20 -11 -8 -20 -20 -20 -26 0 -15 38 -40 50 -32 5 3 11 1 15 -5 3 -5 1
-10 -5 -10 -16 0 -3 -36 24 -65 24 -26 43 -34 30 -13 -4 6 -3 8 4 5 5 -4 8
-16 5 -27 -5 -21 13 -25 75 -20 13 1 35 -6 49 -16 29 -18 115 -26 151 -13 15
6 22 5 23 -4 0 -6 6 2 12 20 8 23 16 30 25 24 7 -4 32 -2 57 7 33 11 42 18 38
30 -4 10 -3 14 1 10 9 -8 68 11 62 21 -2 3 2 14 9 24 12 17 16 17 42 3 15 -8
45 -31 67 -51 l38 -36 -7 -72 c-21 -210 -19 -214 59 -182 17 8 17 6 2 -23 -14
-28 -64 -72 -81 -72 -4 0 -5 17 -1 38 5 32 4 34 -5 12 -14 -34 -3 -69 25 -82
21 -9 32 -4 90 37 44 31 66 54 67 68 7 117 7 117 -34 96 -21 -11 -21 -11 -6 7
9 10 20 30 23 44 5 19 5 21 -3 9 -6 -9 -23 -24 -38 -34 -23 -14 -21 -10 10 20
20 20 38 42 39 49 0 6 2 16 2 21 5 32 61 173 67 169 5 -3 18 0 30 6 33 18 32
6 -1 -30 -44 -47 -59 -80 -68 -147 -9 -69 3 -205 23 -261 3 -7 0 -10 -5 -7
-17 10 -11 -12 13 -57 13 -24 30 -64 37 -90 7 -27 17 -48 22 -48 6 0 7 8 3 18
-62 155 -85 351 -56 484 10 45 19 62 46 82 48 37 84 49 101 35 11 -9 14 -7 14
7 0 16 2 16 10 4 5 -9 5 -19 -2 -27 -12 -15 13 -29 37 -19 8 3 26 -6 41 -19
15 -14 31 -22 37 -18 6 4 8 0 4 -10 -13 -35 98 -70 146 -45 12 6 23 5 33 -3 9
-8 14 -8 14 -1 0 7 15 10 40 7 29 -3 40 0 40 10 0 9 17 13 62 13 37 0 64 5 66
11 2 6 8 9 13 5 5 -3 9 4 9 15 0 11 5 23 11 26 6 4 8 14 5 22 -4 11 -2 13 9 9
8 -3 19 2 24 12 11 20 3 72 -10 72 -5 0 -6 12 -3 26 5 21 4 25 -7 20 -8 -4 -5
0 5 8 11 9 25 16 32 16 15 0 15 51 -1 66 -9 10 -15 10 -25 1 -10 -10 -11 -7
-6 13 14 50 13 78 -2 72 -11 -4 -13 0 -7 17 8 25 -10 52 -30 45 -8 -3 -23 11
-37 35 -18 30 -27 38 -36 29 -8 -8 -9 -5 -5 11 3 12 1 21 -6 21 -6 0 -11 6
-11 14 0 7 -6 19 -14 25 -16 14 -76 22 -76 10 0 -5 -4 -9 -10 -9 -6 0 -6 9 -1
23 10 28 4 47 -15 47 -9 0 -12 5 -9 10 6 10 -7 14 -32 11 -7 -1 -13 8 -13 19
0 29 -19 62 -31 55 -5 -4 -9 -1 -9 5 0 6 -5 8 -11 4 -8 -4 -9 1 -4 16 5 17 4
21 -6 15 -9 -6 -11 -2 -7 13 10 38 -23 63 -85 63 -31 1 -60 -2 -66 -5 -6 -4
-22 12 -36 34 -14 22 -37 45 -51 50 -26 10 -72 8 -91 -3 -7 -5 -17 1 -23 13
-6 11 -15 18 -19 15 -5 -3 -11 2 -15 10 -3 8 -15 15 -26 15 -11 0 -20 4 -20 9
0 9 -48 26 -64 22 -4 -1 -13 2 -20 7 -6 5 -20 4 -33 -3z m221 -111 c9 -8 13
-20 10 -26 -4 -6 -9 -6 -14 3 -7 10 -12 10 -23 0 -8 -6 -29 -16 -46 -21 -29
-8 -31 -7 -31 16 0 21 5 24 34 24 19 0 38 5 41 10 8 13 11 13 29 -6z m-234
-36 c0 -12 -28 3 -34 18 -4 11 -2 12 14 1 11 -6 20 -15 20 -19z m-225 2 c3 -5
-1 -10 -9 -10 -9 0 -16 5 -16 10 0 6 4 10 9 10 6 0 13 -4 16 -10z m172 -66
c-9 -9 -28 6 -21 18 4 6 10 6 17 -1 6 -6 8 -13 4 -17z m-77 -82 c0 -4 -5 -14
-10 -22 -7 -12 -10 -12 -10 -1 0 7 -6 11 -13 8 -8 -3 -14 1 -14 9 0 8 5 14 10
14 5 0 4 7 -3 15 -7 8 -17 12 -23 8 -6 -3 -7 -1 -3 6 5 8 16 5 37 -9 16 -12
29 -24 29 -28z m545 8 c4 -6 -6 -10 -22 -10 -22 0 -25 2 -13 10 19 12 27 12
35 0z m-200 -18 c-3 -3 -11 0 -18 7 -9 10 -8 11 6 5 10 -3 15 -9 12 -12z
m-321 -18 c4 -10 2 -13 -6 -8 -8 5 -9 2 -4 -11 4 -12 0 -24 -13 -36 -19 -18
-20 -18 -18 4 2 21 24 67 31 67 2 0 7 -7 10 -16z m386 -9 c11 -13 10 -14 -4
-9 -9 3 -16 10 -16 15 0 13 6 11 20 -6z m-52 -14 c-13 -21 -48 -35 -48 -21 0
7 32 29 58 39 1 1 -3 -8 -10 -18z m119 -16 c-11 -22 -15 -24 -20 -12 -3 9 1
24 10 32 22 22 27 12 10 -20z m171 -10 c-3 -3 -9 2 -12 12 -6 14 -5 15 5 6 7
-7 10 -15 7 -18z m-28 5 c0 -5 -10 -10 -22 -9 -22 0 -22 1 -3 9 11 5 21 9 23
9 1 1 2 -3 2 -9z m-880 -14 c0 -2 -18 -3 -41 -4 -22 -1 -45 -4 -49 -7 -5 -3
-11 -1 -15 4 -3 6 13 11 37 13 38 3 68 0 68 -6z m357 -22 c-3 -3 -12 -4 -19
-1 -8 3 -5 6 6 6 11 1 17 -2 13 -5z m94 -8 c5 3 9 1 9 -5 0 -5 -9 -13 -21 -16
-19 -6 -20 -8 -3 -26 20 -22 10 -26 -12 -5 -11 12 -12 20 -3 43 6 16 13 22 16
15 3 -6 9 -10 14 -6z m409 -6 c0 -5 -7 -7 -15 -4 -8 4 -15 8 -15 10 0 2 7 4
15 4 8 0 15 -4 15 -10z m139 -58 c14 -11 13 -12 -9 -10 -20 2 -26 9 -28 33 -2
27 -1 28 10 10 6 -11 19 -26 27 -33z m-629 12 c0 -8 -5 -12 -10 -9 -6 4 -8 11
-5 16 9 14 15 11 15 -7z m-420 -4 c-19 -13 -30 -13 -30 0 0 6 10 10 23 10 18
0 19 -2 7 -10z m117 4 c-3 -3 -12 -4 -19 -1 -8 3 -5 6 6 6 11 1 17 -2 13 -5z
m273 -44 c12 -8 9 -10 -12 -10 -15 0 -30 5 -33 10 -8 13 25 13 45 0z m680 -5
c0 -8 -4 -15 -9 -15 -13 0 -22 16 -14 24 11 11 23 6 23 -9z m-134 -12 c-11
-11 -35 -12 -42 -2 -3 5 7 9 22 9 15 0 24 -3 20 -7z m-739 -19 c-3 -3 -12 -4
-19 -1 -8 3 -5 6 6 6 11 1 17 -2 13 -5z m658 -13 c-3 -6 -11 -8 -17 -5 -6 4
-5 9 3 15 16 10 23 4 14 -10z m205 -11 c0 -5 -4 -10 -10 -10 -5 0 -10 5 -10
10 0 6 5 10 10 10 6 0 10 -4 10 -10z m-767 -62 c-2 -5 5 -8 16 -8 22 0 28 -14
11 -25 -6 -4 -8 -11 -5 -16 4 -5 -1 -9 -10 -9 -15 0 -29 25 -41 78 l-7 27 20
-20 c11 -11 19 -23 16 -27z m200 7 c-9 -15 -11 -15 -23 0 -11 14 -11 16 1 13
8 -2 13 3 11 12 -3 11 -1 12 8 3 8 -7 9 -17 3 -28z m106 10 c5 2 11 -6 13 -20
4 -19 -2 -30 -28 -50 -19 -14 -33 -30 -31 -34 1 -5 -2 -9 -7 -10 -16 -2 -11
40 9 92 14 38 20 45 27 33 5 -9 13 -14 17 -11z m-144 -25 c3 -5 1 -10 -4 -10
-6 0 -11 5 -11 10 0 6 2 10 4 10 3 0 8 -4 11 -10z m375 -25 c-33 -19 -49 -19
-24 0 10 8 26 14 34 14 9 0 4 -6 -10 -14z m-480 -15 c0 -5 -4 -10 -10 -10 -5
0 -10 5 -10 10 0 6 5 10 10 10 6 0 10 -4 10 -10z m970 -20 c8 -5 11 -10 5 -10
-5 0 -17 5 -25 10 -8 5 -10 10 -5 10 6 0 17 -5 25 -10z m-786 -72 c-3 -4 3
-11 11 -16 15 -8 15 -10 0 -22 -14 -12 -18 -12 -26 1 -5 8 -9 27 -9 42 0 23 2
26 14 15 8 -7 12 -16 10 -20z m-46 -15 c3 -35 35 -78 56 -77 14 2 14 -1 1 -27
-8 -15 -15 -36 -15 -46 -1 -10 -15 -34 -32 -53 -18 -21 -28 -27 -23 -15 44
113 44 98 0 175 -8 14 -11 28 -5 34 4 4 6 15 3 22 -3 8 -1 14 4 14 5 0 10 -12
11 -27z m424 15 c-6 -6 -28 -13 -48 -15 -20 -2 -39 -5 -43 -6 -3 -1 -7 3 -9 8
-1 6 19 13 45 16 27 3 52 7 58 7 5 1 4 -3 -3 -10z m-656 -23 c17 -14 6 -27
-17 -20 -14 5 -19 3 -17 -7 2 -7 0 -15 -4 -16 -19 -5 -26 -1 -31 19 -3 12 -3
18 0 15 3 -3 12 1 20 9 15 16 30 16 49 0z m-79 -31 c-3 -3 -12 -4 -19 -1 -8 3
-5 6 6 6 11 1 17 -2 13 -5z m-369 -20 c-13 -7 -24 -9 -26 -3 -2 5 -9 6 -14 3
-6 -4 -8 -3 -5 3 3 5 20 10 37 10 31 0 31 -1 8 -13z m1146 7 c3 -5 -1 -14 -9
-21 -13 -10 -15 -9 -15 9 0 21 14 28 24 12z m-857 -67 c-3 -3 -12 -4 -19 -1
-8 3 -5 6 6 6 11 1 17 -2 13 -5z m1171 -31 c-10 -2 -26 -2 -35 0 -10 3 -2 5
17 5 19 0 27 -2 18 -5z m-1438 -17 c0 -2 -7 -7 -16 -10 -8 -3 -12 -2 -9 4 6
10 25 14 25 6z m711 -57 c-9 -24 -47 -69 -58 -69 -3 0 2 10 11 23 9 12 24 34
34 49 20 32 26 30 13 -3z"/>
<path d="M2408 1229 c-225 -23 -387 -65 -608 -156 -93 -38 -242 -114 -280
-143 -22 -17 -23 -19 -10 -66 7 -27 15 -52 17 -56 1 -3 45 19 96 50 233 141
597 285 887 353 30 7 58 15 63 19 9 8 -80 7 -165 -1z"/>
<path d="M2477 1187 c-17 -5 -26 -15 -25 -24 2 -9 -4 -18 -12 -20 -12 -4 -12
-3 -1 5 9 7 10 12 2 16 -6 4 -11 3 -11 -2 0 -6 -8 -8 -19 -5 -10 3 -22 0 -25
-6 -4 -6 -4 -11 1 -12 77 -7 106 -7 93 1 -13 8 -12 10 3 10 10 0 15 5 12 10
-4 6 -11 8 -16 5 -5 -4 -9 -1 -9 5 0 7 7 10 15 6 8 -3 15 0 15 6 0 9 3 9 12 0
7 -7 17 -8 29 -2 12 7 20 6 25 -2 4 -7 3 -8 -4 -4 -8 5 -12 0 -12 -13 0 -12
-4 -21 -10 -21 -5 0 -7 6 -4 13 3 8 -4 13 -17 14 -18 2 -19 0 -7 -14 9 -12 10
-15 1 -9 -7 4 -13 3 -13 -3 0 -5 16 -8 37 -7 29 1 37 6 39 23 6 36 -40 50 -99
30z"/>
<path d="M447 1114 c-1 -1 -36 -4 -77 -7 -41 -4 -93 -12 -115 -18 -100 -27
-222 -75 -213 -84 2 -2 24 1 48 6 62 14 268 18 365 8 250 -28 551 -142 810
-305 133 -84 279 -158 377 -193 366 -127 695 -74 994 163 29 22 53 44 53 48 1
4 -34 -10 -76 -31 -315 -159 -678 -186 -978 -74 -86 32 -236 106 -290 143
-206 141 -462 265 -638 309 -68 18 -251 42 -260 35z"/>
<path d="M2521 1101 c-7 -5 -23 -6 -35 -4 -16 4 -18 2 -7 -5 7 -5 11 -14 8
-19 -7 -12 20 -53 34 -53 6 0 3 10 -5 21 -15 22 -12 49 6 49 6 0 5 -6 -2 -15
-7 -8 -8 -15 -2 -15 5 0 15 7 22 15 10 12 10 15 0 15 -8 0 -10 3 -7 6 4 4 13
1 21 -5 10 -8 16 -9 21 -1 3 5 5 10 3 11 -28 7 -46 7 -57 0z"/>
<path d="M2581 1087 c-7 -10 -15 -15 -20 -13 -5 3 -16 -3 -25 -13 -11 -12 -13
-21 -7 -25 5 -4 13 3 16 15 4 11 9 18 12 15 3 -3 15 -1 26 5 12 7 17 7 13 1
-3 -5 1 -13 10 -16 12 -4 14 -1 9 13 -5 15 -1 19 14 18 15 -1 17 -4 9 -14 -16
-20 -6 -24 17 -7 17 12 18 16 5 24 -8 5 -18 6 -22 4 -4 -3 -8 -1 -8 3 0 16
-38 9 -49 -10z"/>
<path d="M2252 1067 c-1 -24 3 -28 18 -24 11 3 21 1 24 -4 2 -5 3 -4 2 3 -2 7
-11 12 -20 12 -23 -2 -20 13 4 19 12 3 18 1 14 -5 -4 -6 -1 -8 7 -6 8 3 13 12
11 19 -3 11 -1 12 9 2 16 -16 33 -17 23 -1 -4 7 -3 8 5 4 6 -4 9 -11 6 -16 -3
-4 -2 -10 2 -13 5 -2 1 -2 -7 0 -29 8 -33 8 -38 -6 -2 -8 0 -11 6 -7 6 3 13 0
15 -6 4 -10 6 -10 6 0 1 9 6 10 19 4 31 -17 100 26 71 44 -8 4 -9 3 -5 -4 6
-11 -6 -16 -19 -9 -2 1 -10 -6 -17 -16 -13 -18 -14 -17 -14 2 0 11 4 17 8 15
4 -3 8 0 8 5 0 6 -8 11 -17 12 -122 6 -120 6 -121 -24z"/>
<path d="M2465 1069 c-4 -6 -5 -13 -2 -15 3 -3 -1 -17 -8 -31 -12 -22 -12 -31
0 -54 17 -31 33 -38 88 -37 37 0 38 1 20 18 -10 9 -21 13 -24 8 -11 -16 -47
-17 -45 -1 0 9 -5 18 -12 20 -8 3 -10 -2 -6 -14 5 -15 4 -15 -5 -3 -12 18 18
52 35 39 6 -5 15 -4 22 3 9 9 12 9 12 0 0 -12 -13 -16 -38 -13 -10 2 -10 -2
-1 -17 11 -17 14 -18 27 -6 11 11 17 12 28 3 14 -11 20 1 7 15 -4 3 -8 14 -9
22 -1 9 1 13 4 9 4 -4 7 -12 7 -17 0 -6 6 -13 13 -16 7 -2 10 2 6 12 -6 15 5
21 34 17 10 -2 10 2 0 18 -7 11 -18 23 -25 25 -18 7 -43 -4 -43 -19 0 -12 -21
-25 -39 -25 -11 0 -41 56 -34 64 3 3 4 6 0 6 -3 0 -9 -5 -12 -11z m129 -28 c3
-5 -1 -11 -9 -15 -8 -3 -17 0 -21 6 -4 7 -3 8 4 4 7 -4 12 -2 12 3 0 13 7 14
14 2z m-111 -27 c-4 -12 -8 -13 -14 -3 -9 15 -2 32 11 24 5 -3 6 -13 3 -21z"/>
<path d="M2645 1050 c-4 -6 -11 -8 -16 -5 -20 13 -8 -14 13 -27 20 -13 21 -17
9 -32 -9 -10 -10 -16 -2 -16 6 0 11 -5 11 -12 0 -9 -3 -9 -12 0 -9 9 -14 7
-25 -6 -11 -15 -12 -15 -7 -1 7 22 -13 34 -31 19 -31 -25 36 -49 73 -26 8 5
12 25 11 51 -2 24 -6 42 -11 39 -4 -3 -8 -1 -8 5 0 5 6 12 13 14 9 4 9 6 0 6
-6 1 -15 -4 -18 -9z"/>
<path d="M2176 1021 c-3 -5 -22 -7 -42 -4 -23 2 -33 0 -29 -7 3 -6 12 -7 18
-4 8 5 8 3 0 -7 -21 -22 -15 -34 7 -14 22 20 54 30 44 14 -3 -5 -1 -9 5 -9 5
0 13 5 16 10 5 8 11 7 21 -1 11 -9 14 -8 14 2 0 9 3 10 8 4 11 -15 29 -16 35
-2 3 8 -4 12 -22 11 -14 -1 -36 3 -48 7 -12 5 -25 5 -27 0z"/>
<path d="M2071 997 c-16 -16 -14 -27 4 -21 13 6 20 -6 16 -28 -2 -11 17 -10
24 1 3 5 0 13 -6 16 -5 4 -8 13 -5 20 6 17 -18 27 -33 12z"/>
<path d="M2281 997 c-21 -21 -11 -30 11 -11 19 15 20 16 9 2 -7 -10 -10 -18
-7 -18 14 0 46 21 46 29 0 12 -47 10 -59 -2z"/>
<path d="M2346 993 c-7 -17 2 -36 14 -28 4 3 13 -1 19 -9 9 -10 9 -20 0 -40
-12 -26 -29 -35 -29 -15 0 8 -5 8 -15 -1 -18 -15 -20 -34 -2 -23 6 4 20 6 29
5 9 -2 22 7 29 20 14 26 19 59 8 53 -4 -3 -10 2 -13 11 -9 23 -7 31 4 14 5 -8
12 -11 17 -6 4 4 -1 13 -12 19 -30 17 -43 17 -49 0z m29 -3 c-3 -5 -12 -10
-18 -10 -7 0 -6 4 3 10 19 12 23 12 15 0z"/>
<path d="M2595 1000 c-3 -5 1 -10 9 -10 9 0 16 -5 16 -12 0 -8 6 -6 17 5 9 9
13 20 9 24 -5 5 -11 2 -13 -5 -4 -9 -8 -10 -18 -2 -9 8 -15 8 -20 0z"/>
<path d="M2137 982 c-11 -12 -13 -22 -6 -34 6 -11 5 -21 -6 -31 -12 -13 -12
-16 0 -21 8 -3 17 3 20 15 5 16 10 18 21 8 8 -6 14 -7 14 -2 0 5 -9 16 -20 26
-12 10 -17 23 -13 33 5 15 7 15 15 0 7 -13 13 -14 23 -6 8 7 19 9 25 5 5 -3
10 -2 10 3 0 16 -13 22 -27 11 -9 -8 -17 -8 -26 0 -11 8 -18 7 -30 -7z"/>
<path d="M2037 984 c-7 -12 9 -50 25 -60 23 -15 46 -14 58 1 15 18 -1 20 -18
3 -9 -9 -12 -9 -13 0 -1 7 -2 18 -3 25 0 6 -7 12 -14 12 -7 0 -17 6 -21 14 -5
7 -11 9 -14 5z m40 -38 c0 -8 -6 -12 -15 -9 -11 5 -11 7 0 14 7 5 13 9 14 9 0
0 1 -6 1 -14z"/>
<path d="M2225 972 c-9 -24 7 -37 22 -17 7 11 13 13 13 7 0 -7 9 -12 21 -12
11 0 17 5 14 10 -4 6 -11 8 -16 5 -5 -4 -12 0 -15 8 -6 18 -32 18 -39 -1z"/>
<path d="M286 962 c-4 -6 -13 -9 -21 -5 -8 3 -15 1 -15 -3 0 -5 -17 -10 -38
-11 -67 -4 -69 -6 -47 -56 10 -23 36 -3 28 21 -4 13 -2 12 11 -3 16 -19 16
-19 10 8 -7 30 6 36 29 12 15 -15 27 -11 23 8 -2 7 -1 8 2 3 2 -4 9 -2 14 5 7
11 8 9 6 -5 -2 -10 3 -21 11 -24 8 -2 11 0 8 5 -3 5 -1 15 4 23 8 12 12 12 16
2 4 -10 8 -10 19 -1 17 14 19 33 2 22 -17 -10 -42 -10 -49 1 -4 4 -9 3 -13 -2z
m-109 -51 c0 -11 -5 -18 -9 -15 -4 3 -5 11 -1 19 7 21 12 19 10 -4z"/>
<path d="M2171 949 c22 -20 20 -65 -3 -65 -13 0 -14 4 -6 13 7 9 7 13 0 13 -5
0 -13 -7 -16 -15 -5 -14 -9 -14 -37 0 -17 9 -28 12 -25 6 4 -6 2 -11 -3 -11
-6 0 -11 -4 -11 -8 0 -13 124 -11 132 2 5 7 8 4 8 -8 0 -25 9 -16 15 14 3 13
10 27 17 31 21 13 23 0 2 -16 -17 -13 -15 -14 26 -11 49 2 70 11 70 28 0 6 -6
6 -15 -2 -17 -14 -31 -8 -20 9 3 6 11 8 17 5 8 -5 9 -1 5 12 -6 17 -6 17 5 3
7 -9 20 -14 28 -12 13 4 13 3 0 -6 -8 -5 -11 -13 -7 -18 9 -9 28 17 24 32 -2
6 -9 10 -14 10 -6 0 -15 3 -19 8 -13 13 -32 8 -38 -11 -6 -18 -46 -26 -46 -9
0 5 -6 4 -14 -2 -11 -10 -17 -7 -30 10 -12 17 -18 20 -29 11 -7 -6 -18 -8 -23
-4 -5 4 -2 0 7 -9z m41 -11 c7 -17 -1 -38 -14 -38 -7 0 -7 4 1 13 8 10 7 17
-1 25 -8 8 -9 12 -1 12 6 0 13 -6 15 -12z m78 -18 c0 -5 -5 -10 -11 -10 -5 0
-7 5 -4 10 3 6 8 10 11 10 2 0 4 -4 4 -10z"/>
<path d="M374 945 c3 -8 -1 -21 -9 -29 -13 -12 -13 -15 0 -20 8 -3 16 3 20 15
4 10 11 19 18 19 8 0 8 -3 -1 -12 -18 -18 -15 -33 3 -18 9 7 14 19 11 26 -6
16 21 27 30 12 4 -7 3 -8 -4 -4 -7 4 -12 1 -12 -9 0 -9 5 -13 10 -10 6 3 10 1
10 -5 0 -7 -7 -9 -16 -6 -12 5 -15 2 -10 -10 3 -8 6 -19 6 -22 0 -4 4 -1 9 7
6 9 9 5 9 -13 0 -24 -2 -25 -14 -9 -16 22 -18 14 -4 -22 9 -24 8 -25 -11 -14
-17 9 -24 8 -31 -2 -7 -11 -8 -9 -4 4 4 12 2 17 -6 14 -7 -2 -12 -10 -10 -16
3 -18 -15 -13 -22 6 -8 19 10 34 32 26 12 -5 12 -3 1 16 -15 23 -30 28 -26 9
1 -9 -9 -12 -28 -12 -45 3 -47 3 -40 14 3 6 2 10 -3 10 -8 0 -22 -22 -22 -34
0 -3 23 -6 55 -7 11 -1 14 -3 7 -6 -10 -4 -8 -9 5 -19 17 -13 17 -14 -2 -7
-11 3 -16 2 -12 -2 4 -5 35 -10 68 -10 57 -2 62 0 79 27 14 24 16 36 8 61 -17
52 -24 62 -46 63 -12 1 -19 -3 -16 -7 3 -5 0 -9 -5 -9 -6 0 -11 5 -11 10 0 6
-5 10 -11 10 -6 0 -9 -7 -5 -15z"/>
<path d="M538 954 c-4 -3 -14 -7 -25 -8 -16 -3 -19 -9 -14 -34 2 -11 40 -12
46 -1 4 5 12 9 18 9 9 0 8 -3 -1 -8 -8 -6 -2 -9 18 -9 16 0 30 4 30 9 0 5 -6
6 -12 2 -10 -5 -10 -4 -1 6 15 16 46 23 37 9 -3 -5 -10 -6 -16 -3 -7 4 -8 2
-4 -4 13 -21 36 -13 34 12 -2 18 -7 22 -23 18 -11 -3 -25 -9 -31 -14 -6 -4
-18 -6 -26 -3 -9 4 -23 -1 -32 -10 -21 -22 -21 -7 1 17 14 16 15 27 1 12z"/>
<path d="M566 948 c3 -5 10 -6 15 -3 13 9 11 12 -6 12 -8 0 -12 -4 -9 -9z"/>
<path d="M1886 943 c-6 -13 -9 -14 -15 -4 -12 18 -19 16 -52 -15 -31 -30 -38
-50 -14 -40 8 3 15 1 15 -5 0 -6 5 -7 12 -3 8 5 6 11 -6 20 -9 6 -13 15 -8 18
5 3 15 -6 22 -20 9 -16 16 -20 21 -13 4 7 12 8 20 3 19 -11 49 -13 55 -2 5 7
-10 12 -28 9 -5 0 -8 3 -8 8 0 5 -11 8 -25 7 -14 -2 -31 4 -37 12 -11 13 -11
14 1 7 10 -6 12 -4 6 6 -8 12 -6 12 8 0 14 -11 20 -11 34 0 10 9 14 9 10 2 -8
-13 26 -37 37 -26 12 13 6 22 -11 17 -15 -5 -16 -4 -3 5 21 15 30 14 30 -5 0
-8 5 -12 10 -9 6 4 8 10 5 15 -3 5 -1 11 4 14 5 4 8 -2 6 -11 -2 -10 -4 -22
-4 -27 -1 -4 -8 -5 -17 -2 -12 5 -15 2 -10 -10 3 -8 6 -19 6 -22 0 -4 5 0 10
8 8 12 10 12 10 1 0 -11 5 -10 20 4 24 22 25 29 4 54 -13 14 -23 17 -49 11
-19 -4 -38 -3 -43 2 -6 6 -12 3 -16 -9z m105 -46 c-10 -9 -11 -8 -5 6 3 10 9
15 12 12 3 -3 0 -11 -7 -18z"/>
<path d="M345 930 c-3 -5 -13 -7 -23 -4 -14 5 -14 4 2 -6 14 -10 21 -9 34 4
10 9 12 16 5 16 -7 0 -14 -4 -18 -10z"/>
<path d="M220 922 c0 -5 7 -15 15 -22 8 -7 15 -8 15 -2 0 5 -7 15 -15 22 -8 7
-15 8 -15 2z"/>
<path d="M106 908 c5 -8 2 -9 -9 -5 -14 5 -15 3 -4 -13 6 -11 15 -20 20 -20 4
0 5 5 1 12 -5 7 -2 9 9 5 11 -4 14 -2 11 8 -3 7 -12 16 -20 19 -10 4 -12 2 -8
-6z"/>
<path d="M261 901 c-8 -14 -17 -18 -29 -14 -15 6 -15 5 -3 -11 14 -17 16 -16
33 6 17 21 19 22 31 6 12 -15 14 -15 25 0 8 11 11 12 9 3 -1 -7 3 -15 9 -18 6
-2 11 3 11 11 0 17 -24 29 -38 20 -6 -3 -16 -1 -24 6 -11 9 -16 7 -24 -9z"/>
<path d="M2047 899 c4 -13 9 -17 15 -11 11 11 3 32 -12 32 -4 0 -6 -9 -3 -21z"/>
<path d="M27 893 c4 -9 0 -11 -13 -6 -11 4 -15 3 -11 -4 9 -14 87 -15 87 -1 0
5 -7 8 -14 5 -9 -4 -13 -1 -10 7 3 7 -4 12 -20 12 -15 0 -22 -5 -19 -13z"/>
<path d="M2428 899 c-10 -5 -18 -15 -18 -22 0 -7 4 -6 10 3 5 8 10 10 10 5 0
-15 41 -16 59 -2 12 9 13 9 7 0 -4 -7 -2 -13 3 -13 6 0 11 10 11 21 0 21 -1
21 -26 4 -20 -13 -29 -14 -38 -5 -8 8 -7 10 7 5 10 -4 17 -2 17 4 0 14 -19 14
-42 0z"/>
<path d="M196 883 c-9 -9 -7 -23 2 -21 4 2 18 -5 32 -15 13 -9 21 -17 16 -17
-5 0 -3 -7 4 -15 11 -13 14 -13 26 2 13 17 13 17 14 -2 0 -16 2 -17 10 -5 13
21 -1 33 -51 39 -3 1 -15 10 -26 20 -12 11 -24 17 -27 14z"/>
<path d="M380 880 c0 -13 12 -19 26 -13 21 8 17 22 -6 20 -11 -1 -20 -4 -20
-7z"/>
<path d="M641 881 c-7 -5 -26 -7 -42 -6 -20 2 -29 -2 -29 -12 0 -13 3 -13 18
-2 14 11 13 10 -2 -9 -11 -12 -14 -22 -8 -22 7 0 17 9 24 19 11 18 12 18 28
-2 l17 -21 7 22 c4 12 12 20 17 16 6 -3 16 0 24 6 12 10 15 10 15 0 0 -10 3
-10 15 0 13 11 14 10 9 -6 -7 -18 -7 -18 13 -1 18 15 21 16 26 3 4 -9 0 -22
-8 -30 -13 -12 -13 -15 0 -20 8 -3 15 -1 15 4 0 5 10 19 23 31 16 16 17 20 5
16 -9 -3 -18 -1 -20 5 -5 14 -86 19 -94 7 -3 -5 -13 -5 -23 0 -9 5 -23 6 -30
2z m14 -11 c-3 -5 -12 -10 -18 -10 -7 0 -6 4 3 10 19 12 23 12 15 0z"/>
<path d="M2260 880 c0 -5 5 -10 11 -10 5 0 7 5 4 10 -3 6 -8 10 -11 10 -2 0
-4 -4 -4 -10z"/>
<path d="M2290 880 c0 -5 5 -10 10 -10 6 0 10 5 10 10 0 6 -4 10 -10 10 -5 0
-10 -4 -10 -10z"/>
<path d="M2663 883 c4 -7 -10 -10 -41 -8 -68 3 -80 -2 -74 -31 2 -13 8 -21 13
-18 5 3 7 9 5 13 -3 4 7 7 22 8 l27 2 -24 -10 c-32 -13 -21 -22 12 -10 19 8
25 15 21 28 -5 17 -5 17 6 0 10 -15 14 -16 28 -5 16 12 16 11 2 -6 -14 -18
-13 -19 2 -13 10 3 19 3 22 -1 3 -4 -4 -8 -14 -9 -11 -1 -22 3 -25 8 -4 5 -11
7 -16 4 -11 -7 -12 -26 -1 -24 18 3 35 -2 28 -8 -3 -4 4 -13 16 -20 20 -12 20
-13 3 -8 -16 4 -21 0 -21 -15 0 -25 2 -25 28 0 12 11 18 20 14 20 -5 0 -3 7 4
15 9 11 9 15 1 15 -7 0 -10 4 -6 9 3 5 1 12 -5 16 -6 4 -8 11 -5 16 4 5 1 9
-5 9 -6 0 -9 4 -5 9 3 5 0 13 -6 17 -7 4 -9 3 -6 -3z m27 -83 c0 -5 -4 -10
-10 -10 -5 0 -10 5 -10 10 0 6 5 10 10 10 6 0 10 -4 10 -10z"/>
<path d="M1365 870 c-3 -5 -22 -18 -42 -29 l-36 -18 46 -31 c51 -36 57 -38 57
-18 0 8 7 17 16 20 11 4 14 13 10 29 -4 12 -8 29 -10 37 -4 18 -32 25 -41 10z"/>
<path d="M2235 870 c3 -5 8 -10 11 -10 2 0 4 5 4 10 0 6 -5 10 -11 10 -5 0 -7
-4 -4 -10z"/>
<path d="M517 864 c-9 -15 -1 -82 11 -97 7 -8 27 -13 52 -11 22 1 38 -1 36 -5
-3 -4 12 -6 32 -5 20 2 54 4 75 5 36 1 47 17 17 27 -7 3 -10 1 -7 -4 3 -5 -5
-9 -18 -9 -14 0 -21 5 -17 13 2 7 1 12 -4 11 -21 -3 -32 2 -39 19 -5 13 -4 14
6 5 7 -8 18 -9 28 -4 16 9 23 11 39 11 4 0 0 5 -8 11 -12 8 -11 9 6 4 13 -3
26 1 34 10 8 9 8 15 2 15 -6 0 -14 -5 -17 -10 -4 -6 -13 -7 -24 -1 -21 12 -63
3 -55 -11 3 -5 12 -4 20 3 10 8 14 8 14 0 0 -6 -3 -11 -7 -12 -5 0 -18 -2 -31
-3 -12 -2 -27 3 -34 11 -9 11 -14 11 -29 -3 -18 -16 -32 -13 -35 7 -1 5 -2 14
-3 19 0 6 -5 10 -10 10 -11 0 -3 -39 12 -58 7 -9 13 -9 23 -1 7 6 17 8 23 5 5
-3 11 -2 13 4 2 6 9 1 16 -11 9 -15 10 -19 1 -14 -7 5 -10 3 -7 -5 2 -7 12
-14 22 -16 23 -3 30 -10 17 -19 -6 -3 -11 0 -11 7 0 9 -3 9 -10 -2 -7 -11 -10
-11 -10 -2 0 7 -5 10 -12 6 -7 -5 -8 -3 -3 6 6 10 4 12 -10 6 -14 -5 -16 -4
-7 7 7 8 9 17 5 20 -13 14 -21 6 -19 -16 2 -14 -2 -24 -10 -24 -7 0 -10 7 -6
16 5 13 3 14 -10 3 -13 -10 -17 -10 -22 4 -3 9 -3 21 1 27 4 7 0 8 -12 3 -15
-5 -16 -4 -6 8 9 10 9 21 3 32 -5 9 -12 13 -15 8z"/>
<path d="M396 851 c-3 -5 1 -11 9 -15 8 -3 15 -1 15 4 0 13 -18 22 -24 11z"/>
<path d="M802 832 c-22 -23 -32 -28 -45 -20 -21 11 -40 1 -30 -15 4 -7 0 -6
-10 2 -10 8 -17 9 -17 3 0 -19 23 -25 34 -9 10 13 14 11 25 -14 9 -21 20 -29
37 -29 14 0 23 4 19 10 -3 5 -13 7 -23 4 -14 -5 -14 -4 -3 4 9 6 22 7 31 2 20
-11 25 23 8 54 -10 19 -9 19 5 8 13 -11 15 -11 13 2 -4 29 -16 29 -44 -2z m24
-38 c1 -9 -1 -13 -4 -9 -4 4 -7 10 -7 13 0 4 -4 14 -9 22 -7 12 -6 13 4 3 8
-7 15 -20 16 -29z m-26 7 c0 -14 -29 -21 -36 -9 -4 6 -3 8 4 4 6 -3 13 -2 17
4 8 12 15 13 15 1z"/>
<path d="M1730 850 c0 -5 5 -10 11 -10 5 0 7 5 4 10 -3 6 -8 10 -11 10 -2 0
-4 -4 -4 -10z"/>
<path d="M1878 835 c-21 -28 -22 -36 -5 -59 13 -17 14 -17 28 0 12 16 12 17
-3 11 -10 -3 -20 -2 -23 3 -8 13 26 59 44 60 10 0 9 -4 -5 -14 -10 -8 -16 -17
-12 -21 3 -4 16 3 27 14 12 12 21 16 21 10 0 -6 6 -9 13 -6 6 2 20 -2 30 -11
19 -17 24 -3 5 16 -9 9 -9 12 0 12 7 0 13 -6 14 -12 0 -7 2 -17 2 -23 2 -17
17 -35 28 -35 6 0 6 6 -2 15 -7 9 -10 19 -6 23 4 4 16 -3 26 -15 21 -26 30
-29 30 -9 0 7 -14 19 -30 26 -17 7 -33 17 -36 22 -4 6 2 5 13 -1 11 -6 23 -7
27 -4 3 3 6 1 6 -6 0 -7 5 -9 10 -6 6 3 10 1 10 -4 0 -6 9 -20 21 -32 l21 -21
-24 7 c-21 6 -22 5 -5 -8 14 -12 15 -16 4 -20 -8 -3 -20 -1 -28 4 -12 7 -12 9
1 9 13 0 13 1 0 10 -22 14 -30 12 -24 -5 6 -15 -5 -19 -36 -15 -12 1 -13 -1
-2 -11 6 -7 12 -17 12 -23 0 -5 -6 -2 -13 9 -10 12 -16 14 -21 7 -4 -7 -2 -12
5 -12 7 0 9 -3 6 -6 -4 -4 -13 -1 -22 6 -8 7 -24 10 -34 7 -15 -4 -18 -1 -13
12 5 14 4 14 -11 2 -25 -20 -21 -26 21 -29 81 -7 97 -7 97 5 0 20 13 25 32 13
17 -10 16 -11 -3 -5 -14 3 -21 1 -21 -9 0 -8 10 -13 24 -12 12 0 23 6 23 12 0
7 7 15 16 18 15 6 15 4 3 -11 -11 -16 -11 -16 1 -5 8 7 16 27 17 45 1 18 5 44
9 60 4 18 2 27 -6 27 -7 0 -10 -6 -7 -12 2 -7 1 -21 -2 -30 -6 -17 -7 -16 -18
2 -11 16 -10 18 4 13 11 -4 14 -3 9 6 -5 7 -14 10 -22 7 -8 -3 -14 -2 -14 3 0
9 2 9 -110 15 -80 4 -86 3 -102 -19z"/>
<path d="M2523 847 c3 -10 2 -17 -3 -17 -6 0 -10 5 -10 10 0 6 -4 10 -9 10 -6
0 -9 -18 -8 -39 1 -22 -1 -37 -5 -35 -5 3 -3 -5 3 -19 10 -21 16 -23 73 -22
35 1 68 5 74 9 17 10 15 26 -4 26 -8 0 -12 -4 -9 -10 3 -5 1 -10 -4 -10 -6 0
-11 5 -11 11 0 5 -5 7 -11 3 -8 -4 -7 -9 2 -15 10 -6 10 -9 2 -9 -6 0 -15 5
-19 11 -8 13 16 30 29 22 5 -3 7 0 5 8 -3 8 -12 12 -19 10 -8 -2 -21 -4 -29
-5 -8 -2 -16 -13 -18 -24 -2 -12 -7 -22 -12 -22 -5 0 -7 7 -4 15 4 8 -1 17
-10 21 -9 3 -16 15 -16 25 0 23 13 25 30 4 7 -8 16 -12 21 -9 11 6 12 24 2 23
-21 -3 -32 2 -27 15 3 8 0 17 -7 22 -9 5 -10 2 -6 -9z m1 -85 c3 -5 -1 -9 -9
-9 -8 0 -12 4 -9 9 3 4 7 8 9 8 2 0 6 -4 9 -8z"/>
<path d="M35 839 l-20 -8 20 -2 c11 -1 28 -2 38 -1 9 1 17 -3 17 -9 0 -7 6 -7
18 2 15 13 16 12 4 -3 -7 -9 -9 -19 -4 -22 10 -6 36 43 27 52 -3 3 -5 1 -5 -4
0 -5 -9 -10 -20 -10 -11 0 -20 4 -20 9 0 5 -6 4 -14 -2 -8 -7 -16 -8 -18 -3
-1 5 -12 6 -23 1z"/>
<path d="M145 831 c-2 -9 -4 -20 -4 -25 2 -21 -27 -24 -47 -5 -19 18 -22 18
-28 4 -4 -10 -2 -14 6 -9 7 5 8 3 3 -6 -6 -10 -4 -12 8 -7 9 3 18 0 21 -9 4
-10 11 -12 23 -7 22 10 44 10 60 0 6 -4 18 -1 26 7 8 8 19 12 23 8 5 -4 -2 5
-15 20 -13 15 -28 25 -32 22 -5 -3 -9 1 -9 9 0 19 -29 17 -35 -2z m46 -31 c6
0 7 6 3 13 -5 8 -3 8 9 -2 22 -17 12 -34 -12 -21 -10 5 -21 7 -24 4 -3 -3 -11
-3 -17 1 -8 5 -8 11 1 22 11 12 14 12 21 -1 5 -9 14 -16 19 -16z"/>
<path d="M1667 836 c-18 -14 -25 -52 -7 -41 6 4 8 10 5 15 -3 5 3 13 12 19 10
5 16 12 13 14 -3 3 -13 0 -23 -7z"/>
<path d="M1689 831 c-15 -17 -15 -19 2 -30 26 -16 34 -14 19 4 -10 13 -11 18
-1 28 10 9 11 9 6 -4 -7 -18 22 -22 44 -6 22 18 40 17 34 -1 -5 -14 -3 -14 15
2 12 11 22 21 22 23 0 7 -66 -1 -78 -10 -9 -7 -17 -6 -24 1 -15 15 -19 14 -39
-7z"/>
<path d="M2205 840 c-4 -6 -11 -8 -16 -5 -14 9 -10 -8 7 -30 11 -14 15 -15 14
-5 -5 34 -1 45 12 32 17 -17 33 -15 18 3 -15 17 -26 19 -35 5z"/>
<path d="M2254 812 l3 -34 -18 23 c-10 13 -20 21 -23 18 -11 -11 19 -39 52
-48 18 -6 30 -6 27 -1 -3 4 0 10 6 12 7 2 4 10 -7 18 -16 14 -17 13 -11 -2 3
-10 2 -18 -3 -18 -16 0 -11 37 5 44 23 9 18 22 -9 22 -22 0 -25 -4 -22 -34z"/>
<path d="M2310 834 c0 -8 -5 -14 -11 -14 -8 0 -8 -5 1 -15 7 -8 17 -12 22 -9
6 4 6 9 -1 14 -9 5 -8 10 2 18 12 10 14 8 12 -13 -3 -24 5 -32 18 -18 4 3 1
13 -6 22 -11 14 -10 14 6 2 14 -11 17 -11 17 0 0 9 3 10 8 4 4 -5 13 -10 21
-10 8 0 16 -6 19 -12 2 -7 -1 -13 -8 -13 -6 0 -8 5 -5 10 3 6 1 10 -5 10 -7 0
-10 -7 -6 -15 4 -13 2 -13 -14 -5 -13 7 -21 7 -25 0 -4 -6 -14 -9 -22 -8 -9 2
-18 -2 -20 -8 -4 -12 45 -12 64 -1 6 4 14 1 16 -5 4 -9 6 -10 6 -1 1 7 11 10
26 7 14 -2 25 0 25 6 0 5 -5 10 -11 10 -5 0 -7 5 -4 10 3 6 1 10 -5 10 -6 0
-9 4 -6 8 3 5 0 9 -7 10 -14 2 -53 9 -84 16 -16 3 -23 0 -23 -10z"/>
<path d="M2458 833 c6 -2 10 -8 8 -12 -3 -4 0 -13 6 -21 8 -12 9 -12 4 3 -3
10 0 17 7 17 8 0 6 4 -3 10 -8 5 -19 9 -25 9 -5 0 -4 -3 3 -6z"/>
<path d="M885 822 c-13 -9 -17 -65 -5 -57 6 4 10 0 10 -7 0 -9 3 -9 10 2 6 10
5 17 -6 23 -12 7 -13 12 -3 23 13 16 9 27 -6 16z"/>
<path d="M910 812 l-23 -18 31 -13 c18 -7 30 -16 28 -20 -2 -3 6 -7 19 -7 17
-1 28 7 37 26 13 27 15 28 26 10 9 -14 9 -21 0 -26 -7 -5 -8 -3 -3 6 5 8 3 11
-4 9 -24 -8 -11 -24 19 -25 20 0 30 5 30 14 0 11 -3 12 -14 3 -12 -10 -13 -8
-9 11 3 13 3 20 -1 16 -4 -3 -16 2 -27 13 -16 16 -24 17 -40 9 -19 -11 -18
-30 2 -30 6 0 8 4 4 9 -3 5 -1 12 4 15 5 4 8 -2 7 -11 -2 -9 -8 -19 -14 -21
-7 -2 -9 -8 -6 -14 4 -6 -2 -6 -14 1 -12 6 -24 16 -27 21 -4 6 -12 7 -18 3 -7
-4 -6 0 2 10 7 9 19 17 25 16 6 0 6 -3 -2 -6 -10 -4 -10 -8 -1 -19 6 -8 16
-14 21 -14 6 0 4 7 -3 17 -8 9 -13 19 -11 22 8 14 -17 10 -38 -7z"/>
<path d="M1751 803 c-12 -15 -20 -23 -17 -16 4 6 1 15 -5 19 -7 4 -9 3 -5 -4
3 -6 2 -13 -4 -17 -5 -3 -10 -13 -10 -21 0 -8 5 -12 10 -9 6 4 8 11 5 16 -3 5
0 6 8 3 9 -3 21 4 30 16 8 12 18 17 21 12 3 -6 0 -13 -6 -16 -7 -3 2 -4 20 -1
19 2 37 7 40 11 4 4 -1 4 -10 1 -10 -4 -18 -2 -18 3 0 6 7 10 16 10 8 0 12 5
9 11 -5 7 -13 5 -25 -6 -17 -15 -19 -15 -28 0 -8 15 -12 14 -31 -12z"/>
<path d="M1925 814 c-16 -12 -17 -16 -5 -27 10 -9 11 -9 6 0 -5 9 -2 11 10 6
11 -4 15 -2 11 4 -7 11 40 9 51 -2 4 -4 0 -6 -8 -4 -8 2 -25 -1 -37 -5 -19 -6
-21 -11 -12 -27 6 -12 17 -18 25 -15 8 3 14 0 14 -6 0 -7 5 -6 15 2 8 7 15 17
15 22 0 6 -7 5 -15 -2 -12 -10 -15 -10 -15 0 0 10 -3 10 -15 0 -10 -9 -15 -9
-15 -1 0 6 6 12 13 12 6 1 19 2 27 3 8 1 22 -5 32 -12 11 -9 18 -10 23 -3 3 6
1 11 -5 11 -6 0 -23 14 -37 31 -20 23 -28 27 -34 17 -7 -10 -11 -10 -17 -1 -5
8 -12 8 -27 -3z"/>
<path d="M29 818 c-7 -18 -3 -46 7 -56 8 -7 14 -10 14 -6 0 3 6 2 13 -3 6 -5
19 -9 27 -8 8 0 18 -4 22 -10 5 -7 8 -6 8 1 0 7 13 10 30 8 23 -3 30 0 30 14
0 13 -2 14 -9 3 -6 -9 -11 -10 -15 -2 -5 7 -13 8 -23 3 -20 -12 -84 18 -80 37
2 12 -20 30 -24 19z"/>
<path d="M2579 803 c-13 -15 -12 -15 7 -5 17 9 24 9 34 -3 16 -19 31 -19 24 0
-4 8 -10 13 -14 10 -5 -3 -11 -1 -15 5 -9 14 -21 12 -36 -7z"/>
<path d="M550 800 c0 -5 5 -10 11 -10 5 0 7 5 4 10 -3 6 -8 10 -11 10 -2 0 -4
-4 -4 -10z"/>
<path d="M1880 799 c0 -5 5 -7 10 -4 6 3 10 8 10 11 0 2 -4 4 -10 4 -5 0 -10
-5 -10 -11z"/>
<path d="M2520 802 c0 -12 19 -26 26 -19 2 2 -2 10 -11 17 -9 8 -15 8 -15 2z"/>
<path d="M1670 790 c0 -5 7 -10 16 -10 8 0 12 5 9 10 -3 6 -10 10 -16 10 -5 0
-9 -4 -9 -10z"/>
<path d="M476 782 c-3 -4 -23 -7 -46 -6 -31 1 -39 -1 -30 -10 6 -6 33 -12 60
-12 45 -1 48 0 39 17 -11 21 -15 23 -23 11z"/>
<path d="M1423 773 c-22 -8 -14 -32 17 -48 16 -8 34 -15 39 -15 13 0 3 29 -17
53 -16 18 -19 19 -39 10z"/>
<path d="M1547 759 c3 -10 9 -19 14 -19 5 0 7 6 5 13 -1 6 -1 9 1 5 3 -5 17
-6 31 -3 21 4 23 3 8 -3 -25 -11 -8 -22 27 -18 34 4 38 8 27 26 -7 10 -10 11
-10 3 0 -7 -5 -13 -11 -13 -5 0 -7 5 -4 10 4 6 -8 10 -27 11 -18 0 -40 2 -49
4 -12 2 -15 -3 -12 -16z"/>
<path d="M1755 770 c-3 -5 4 -15 15 -23 20 -14 20 -14 -5 -25 -14 -6 -25 -17
-25 -23 0 -7 8 -6 23 4 21 13 23 13 23 -3 0 -12 -6 -16 -21 -12 -17 5 -18 3
-7 -11 21 -25 39 -10 39 33 0 22 -4 40 -9 40 -5 0 -7 4 -4 9 3 5 -1 11 -9 15
-8 3 -17 1 -20 -4z"/>
<path d="M1891 759 c-13 -10 -18 -19 -12 -19 6 0 10 -3 10 -7 -4 -23 3 -23 22
1 27 34 13 52 -20 25z m24 -9 c-3 -5 -12 -10 -18 -10 -7 0 -6 4 3 10 19 12 23
12 15 0z"/>
<path d="M910 760 c0 -5 5 -10 10 -10 6 0 10 5 10 10 0 6 -4 10 -10 10 -5 0
-10 -4 -10 -10z"/>
<path d="M1670 762 c0 -4 9 -13 20 -20 20 -12 26 -6 12 13 -9 12 -32 18 -32 7z"/>
<path d="M236 752 c-11 -10 -6 -19 9 -19 8 0 15 5 15 10 0 5 7 4 15 -3 12 -10
15 -10 15 1 1 8 8 1 16 -14 12 -23 18 -26 30 -16 18 15 18 23 -2 15 -8 -3 -12
-2 -9 3 3 6 14 9 25 8 13 -1 16 -5 10 -11 -15 -15 -12 -22 8 -23 11 -1 17 6
18 21 1 13 -3 23 -10 24 -111 8 -136 9 -140 4z"/>
<path d="M1720 739 c-9 -15 -15 -18 -24 -9 -14 11 -46 4 -46 -11 0 -11 17 -12
23 -1 2 4 2 1 1 -5 -2 -7 1 -13 6 -13 6 0 10 4 10 8 0 5 7 9 15 9 8 0 11 -5 8
-10 -3 -5 0 -8 7 -5 8 2 16 10 18 18 3 8 0 10 -8 5 -8 -5 -11 -4 -7 3 4 5 16
8 27 5 26 -7 26 3 0 17 -15 8 -21 6 -30 -11z"/>
<path d="M2170 735 c0 -7 5 -17 10 -20 6 -4 8 -10 5 -15 -3 -5 0 -12 6 -16 8
-4 9 -3 5 4 -4 7 -3 12 3 12 5 0 12 -4 16 -10 3 -6 15 -6 30 0 15 6 27 6 30
-1 4 -5 11 -6 17 -3 6 4 28 8 49 8 48 2 66 17 44 36 -15 12 -16 11 -13 -5 2
-15 -3 -19 -28 -20 -26 -1 -30 2 -27 20 4 15 0 14 -15 -8 -16 -24 -20 -26 -26
-12 -6 16 -8 16 -30 1 -22 -14 -25 -14 -30 0 -3 8 -10 13 -15 10 -5 -3 -11 0
-14 7 -3 7 3 13 13 13 10 0 18 -4 17 -9 -1 -5 4 -12 12 -15 8 -2 11 0 8 5 -3
5 7 9 23 9 18 0 27 -4 23 -10 -3 -6 -4 -9 0 -6 10 9 2 24 -13 27 -66 12 -100
12 -100 -2z"/>
<path d="M202 727 c0 -7 -3 -22 -6 -34 -2 -13 -1 -23 5 -23 5 0 9 -6 9 -14 0
-15 21 -26 51 -26 12 0 17 4 14 11 -4 6 -14 8 -22 5 -9 -4 -11 -2 -7 6 5 8 2
9 -9 5 -10 -3 -17 -2 -17 3 0 6 7 10 15 10 8 0 15 5 15 10 0 13 -13 13 -27 -1
-7 -7 -12 -6 -16 5 -4 11 -1 13 11 9 15 -6 16 -5 2 12 -15 18 -14 18 11 1 24
-15 27 -15 33 -1 3 9 10 14 15 10 5 -3 12 -1 15 3 3 5 -9 8 -27 7 -18 -1 -39
2 -48 6 -10 5 -16 3 -17 -4z"/>
<path d="M887 726 c-6 -15 1 -26 15 -26 5 0 6 4 3 10 -3 6 1 7 9 4 22 -9 20 3
-3 15 -14 8 -20 7 -24 -3z"/>
<path d="M935 711 c1 -14 3 -29 4 -32 2 -9 31 -7 31 3 0 4 -4 8 -9 8 -6 0 -9
9 -8 20 1 11 5 20 10 20 5 0 7 -6 4 -14 -3 -7 -1 -18 5 -24 12 -12 1 -35 -13
-27 -5 4 -9 1 -9 -4 0 -6 7 -11 15 -11 8 0 15 -4 15 -10 0 -5 -8 -7 -17 -4
-17 5 -17 5 -1 -9 10 -8 14 -18 10 -23 -4 -4 0 -3 9 4 9 7 15 23 13 37 -1 14
2 25 7 25 12 0 12 27 -1 35 -6 4 -7 -1 -4 -12 5 -14 4 -15 -4 -4 -6 8 -8 20
-5 28 3 7 1 14 -3 14 -49 8 -53 6 -49 -20z"/>
<path d="M1563 732 c-8 -5 -9 -13 -3 -22 7 -12 10 -12 16 3 6 16 8 16 22 -4 9
-13 17 -17 21 -10 5 8 13 7 27 -4 18 -14 18 -14 -3 -8 -15 3 -23 1 -23 -7 0
-7 -9 -2 -21 11 -16 18 -19 20 -15 6 3 -11 2 -16 -4 -12 -6 3 -10 1 -10 -4 0
-6 8 -11 18 -12 112 -6 141 -5 136 5 -3 6 1 3 9 -7 8 -10 18 -14 21 -9 9 15
-20 33 -59 36 -19 2 -44 11 -55 21 -14 13 -20 14 -20 5 0 -10 -5 -9 -18 3 -21
19 -23 20 -39 9z"/>
<path d="M2332 729 c2 -7 12 -13 21 -15 23 -3 21 3 -4 17 -17 8 -20 8 -17 -2z"/>
<path d="M2406 727 c3 -10 9 -15 12 -12 3 3 0 11 -7 18 -10 9 -11 8 -5 -6z"/>
<path d="M390 720 c0 -5 5 -10 10 -10 6 0 10 5 10 10 0 6 -4 10 -10 10 -5 0
-10 -4 -10 -10z"/>
<path d="M400 703 c-25 -24 -25 -25 -5 -38 11 -8 26 -20 34 -26 11 -10 13 -10
9 2 -3 8 4 29 15 48 12 19 16 31 10 28 -7 -4 -14 -3 -18 3 -9 14 -17 11 -45
-17z m38 -19 c-11 -12 -21 -13 -33 -7 -16 9 -16 10 0 17 9 3 22 3 28 -1 7 -4
8 0 3 13 -6 15 -5 17 5 6 11 -10 10 -15 -3 -28z"/>
<path d="M564 721 c-3 -4 -14 -7 -25 -7 -10 -1 -26 -2 -34 -3 -8 0 -15 -8 -15
-17 0 -13 3 -14 15 -4 8 6 19 9 25 5 5 -3 10 -1 10 6 0 7 6 5 13 -6 10 -12 16
-14 21 -7 4 7 5 16 2 20 -3 5 1 9 8 9 9 0 12 -7 8 -16 -5 -14 -3 -14 11 -2 9
7 17 16 17 20 0 8 -48 9 -56 2z"/>
<path d="M630 718 c0 -6 -8 -17 -17 -24 -10 -7 -13 -14 -6 -14 6 0 15 5 18 10
7 12 25 4 25 -12 0 -5 -7 -7 -16 -4 -8 3 -13 2 -10 -3 4 -5 -3 -7 -14 -4 -11
3 -20 10 -20 15 0 5 -4 7 -10 3 -14 -9 -2 -32 18 -32 28 -1 92 19 92 30 0 5
-8 6 -17 3 -10 -4 -14 -4 -10 0 4 4 -1 13 -11 21 -16 12 -16 13 1 7 9 -3 17
-2 17 3 0 5 -9 9 -20 10 -11 1 -20 -3 -20 -9z"/>
<path d="M677 718 c-7 -19 14 -30 34 -17 11 7 11 9 -3 9 -9 0 -18 5 -20 12 -3
8 -7 6 -11 -4z"/>
<path d="M740 721 c0 -12 39 -58 40 -47 0 5 -8 18 -17 28 -15 17 -15 18 -1 13
9 -4 19 -13 22 -21 3 -8 12 -11 22 -7 11 4 15 2 12 -8 -2 -7 -16 -13 -30 -14
-27 0 -53 -15 -27 -15 11 0 11 -2 -1 -10 -10 -6 -11 -10 -2 -10 6 0 11 -6 10
-12 -2 -7 3 -12 10 -10 6 1 12 -2 12 -6 0 -5 7 -9 15 -9 9 0 14 4 13 9 -2 5
-7 9 -12 8 -9 -2 -26 19 -26 33 0 4 5 7 11 7 5 0 7 -4 4 -10 -3 -5 1 -10 9
-10 9 0 15 3 15 8 -3 20 2 32 13 26 6 -4 17 1 24 11 11 15 16 16 29 5 8 -7 15
-8 15 -2 0 19 -26 31 -60 27 -19 -2 -29 -1 -22 2 6 2 12 9 12 14 0 5 -11 4
-25 -1 -15 -6 -26 -6 -30 0 -8 12 -35 13 -35 1z m110 -35 c0 -3 -4 -8 -10 -11
-5 -3 -10 -1 -10 4 0 6 5 11 10 11 6 0 10 -2 10 -4z"/>
<path d="M845 720 c3 -5 12 -7 20 -3 21 7 19 13 -6 13 -11 0 -18 -4 -14 -10z"/>
<path d="M1042 720 c-12 -9 -10 -50 2 -50 6 -1 27 -3 46 -6 27 -4 38 -1 47 14
10 17 8 19 -17 19 -21 0 -27 -4 -23 -16 4 -13 3 -13 -5 -2 -6 8 -17 11 -26 8
-8 -3 -18 -1 -22 5 -5 7 -2 8 6 3 10 -6 12 -4 6 11 -6 15 -5 17 5 7 14 -14 33
-18 25 -5 -3 5 1 9 9 9 8 0 15 -4 15 -9 0 -4 5 -8 10 -8 6 0 10 6 10 14 0 11
-11 14 -41 13 -22 -1 -43 -4 -47 -7z"/>
<path d="M1143 717 c2 -7 11 -11 20 -11 9 1 18 -4 21 -12 3 -8 0 -11 -9 -8 -8
3 -19 3 -26 -1 -19 -12 12 -25 33 -14 18 10 20 25 4 44 -13 15 -48 17 -43 2z"/>
<path d="M52 712 c-55 -6 -32 -27 30 -27 48 -1 54 1 50 17 -4 18 -5 18 -19 1
-8 -10 -12 -13 -9 -7 7 15 -10 20 -52 16z"/>
<path d="M146 695 c4 -8 10 -12 15 -9 14 8 10 24 -6 24 -9 0 -12 -6 -9 -15z"/>
<path d="M261 683 c-6 -13 -7 -23 -1 -23 4 0 15 -6 22 -14 18 -17 138 -31 138
-15 0 6 -9 13 -20 16 -11 3 -23 16 -26 29 -3 13 -10 21 -15 18 -5 -3 -5 -13 1
-24 6 -11 6 -21 1 -25 -12 -7 -18 4 -15 33 1 16 -3 21 -12 18 -7 -3 -16 -1
-19 4 -10 16 -44 6 -54 -17z m66 -23 c0 -9 -7 -17 -14 -17 -6 0 -10 4 -7 9 5
7 -8 12 -27 10 -3 -1 -6 6 -6 14 0 10 4 11 11 4 17 -17 30 -11 15 7 -13 15
-12 15 8 3 12 -8 21 -21 20 -30z m57 -18 c3 -5 -1 -9 -9 -9 -8 0 -12 4 -9 9 3
4 7 8 9 8 2 0 6 -4 9 -8z"/>
<path d="M2436 701 c-4 -7 -14 -10 -21 -7 -8 3 -15 0 -17 -5 -2 -6 -12 -11
-23 -13 -26 -4 -30 -21 -5 -23 11 -1 18 2 15 7 -4 6 2 7 11 3 12 -4 15 -3 10
5 -4 8 -2 10 7 6 8 -3 18 0 22 6 6 9 10 9 16 -1 6 -10 9 -10 9 -2 0 8 7 10 18
6 15 -6 15 -5 3 11 -10 12 -16 14 -21 5 -6 -8 -9 -8 -12 2 -3 10 -6 10 -12 0z"/>
<path d="M2509 707 c-8 -27 -5 -36 9 -28 10 4 22 7 28 4 6 -2 11 2 11 10 0 10
-45 24 -48 14z"/>
<path d="M909 688 c-1 -7 -3 -23 -4 -35 -1 -14 3 -23 12 -23 8 0 11 4 8 10 -4
6 1 7 10 3 16 -5 16 -4 1 26 -18 33 -25 39 -27 19z"/>
<path d="M505 680 c-3 -5 -12 -7 -20 -3 -8 3 -15 1 -15 -5 0 -8 18 -9 53 -3
10 2 9 21 -2 21 -6 0 -12 -4 -16 -10z"/>
<path d="M536 674 c-9 -23 -8 -24 14 -24 23 0 26 13 6 29 -11 9 -15 8 -20 -5z"/>
<path d="M1866 674 c-3 -8 -2 -12 3 -9 5 3 13 0 16 -5 5 -7 12 -5 21 7 13 17
14 17 7 -2 -6 -20 -6 -20 15 -1 14 12 22 14 22 7 0 -7 4 -10 9 -7 5 4 11 1 13
-6 3 -8 6 -7 10 3 7 17 6 17 -64 23 -34 3 -48 1 -52 -10z"/>
<path d="M2025 679 l-20 -8 20 -1 c80 -8 83 -7 78 6 -3 9 -11 10 -28 4 -13 -5
-25 -5 -27 -1 -2 5 -12 5 -23 0z"/>
<path d="M2115 681 c-3 -6 0 -11 8 -11 8 0 20 -13 27 -30 8 -18 20 -30 31 -30
26 0 34 4 32 13 -2 4 2 7 7 7 6 0 10 -4 10 -9 0 -7 18 -8 55 -2 6 1 2 6 -8 12
-9 6 -15 14 -13 18 6 10 -25 8 -42 -3 -6 -4 -12 -2 -12 3 0 6 -12 11 -27 11
-14 0 -34 7 -44 16 -11 10 -19 12 -24 5z m65 -43 c0 -9 4 -8 11 2 9 12 10 12
7 1 -6 -21 -24 -25 -31 -6 -4 8 -2 15 3 15 6 0 10 -6 10 -12z"/>
<path d="M864 666 c-3 -9 -14 -16 -24 -16 -16 0 -19 -13 -11 -52 1 -7 41 -5
56 3 6 3 25 5 43 4 17 -1 32 1 32 6 0 15 -20 20 -40 9 -19 -10 -25 -4 -21 23
0 4 -6 7 -15 7 -9 0 -12 -5 -8 -12 5 -7 3 -8 -6 -3 -10 6 -9 11 4 21 11 8 13
14 7 19 -6 3 -14 -1 -17 -9z m-11 -52 c-4 -12 -8 -13 -14 -3 -9 15 -2 32 11
24 5 -3 6 -13 3 -21z m37 2 c0 -3 -4 -8 -10 -11 -5 -3 -10 -1 -10 4 0 6 5 11
10 11 6 0 10 -2 10 -4z"/>
<path d="M136 663 c-4 -5 -20 -9 -34 -9 -49 -3 -52 -4 -52 -14 0 -5 10 -8 22
-6 13 2 31 -3 41 -12 19 -17 23 -3 5 18 -11 12 -10 12 3 2 14 -10 18 -9 23 4
7 19 3 28 -8 17z"/>
<path d="M2306 663 c-12 -12 -6 -22 9 -17 8 4 15 2 15 -3 0 -5 25 -9 55 -10
31 0 52 4 49 9 -3 5 0 9 7 7 25 -3 39 1 39 11 0 12 -48 7 -76 -8 -23 -12 -52
-10 -62 4 -9 11 -27 15 -36 7z"/>
<path d="M1927 654 c-3 -4 -2 -15 3 -24 10 -19 -3 -22 -27 -7 -8 5 -13 3 -13
-3 0 -7 -7 -10 -17 -6 -15 5 -15 4 1 -9 23 -17 33 -19 40 -6 3 5 20 7 38 5
l32 -4 -22 20 c-12 12 -22 24 -22 27 0 3 8 -1 18 -10 10 -10 23 -17 28 -17 10
1 -34 40 -45 40 -4 0 -11 -3 -14 -6z"/>
<path d="M1987 653 c-4 -7 -3 -14 2 -18 6 -3 8 -12 4 -20 -3 -8 0 -15 6 -15
12 0 13 16 2 44 -5 13 -10 16 -14 9z"/>
<path d="M2025 650 c-11 -17 51 -46 89 -42 38 4 41 8 26 32 -10 16 -70 23 -70
8 0 -5 5 -6 10 -3 15 9 12 -1 -4 -14 -10 -9 -17 -7 -27 6 -12 14 -12 16 0 8
10 -5 12 -4 7 3 -9 15 -23 15 -31 2z m99 -17 c4 -10 4 -14 0 -11 -4 4 -16 2
-28 -4 l-21 -11 20 21 c11 11 21 21 21 21 1 1 5 -7 8 -16z"/>
<path d="M33 633 c3 -13 1 -23 -3 -23 -10 0 -7 -41 4 -59 4 -7 13 -10 19 -8 7
2 21 0 32 -6 11 -5 17 -6 13 -2 -4 4 -3 16 2 25 7 13 6 20 -4 23 -15 6 -26 -1
-26 -15 0 -5 6 -6 13 -2 6 4 8 3 4 -1 -11 -13 -38 -15 -31 -3 4 6 2 8 -4 4 -6
-3 -13 -2 -16 3 -4 5 -2 12 4 16 6 4 8 11 5 16 -4 5 -1 9 5 9 7 0 9 -7 6 -16
-4 -9 -1 -14 6 -12 6 2 13 14 15 27 2 15 -1 20 -8 15 -7 -4 -19 2 -27 12 -14
18 -14 18 -9 -3z"/>
<path d="M142 626 c-9 -21 -8 -27 12 -39 22 -15 23 -14 23 13 0 19 -4 26 -14
23 -7 -3 -13 -3 -13 0 0 3 7 8 15 11 10 4 20 -3 27 -19 9 -19 14 -22 21 -13 6
9 7 8 3 -4 -4 -14 0 -18 17 -18 18 0 19 2 7 10 -8 5 -11 10 -5 10 5 0 -7 11
-27 25 -46 31 -52 31 -66 1z"/>
<path d="M1865 640 c3 -5 10 -10 16 -10 5 0 9 5 9 10 0 6 -7 10 -16 10 -8 0
-12 -4 -9 -10z"/>
<path d="M1900 641 c0 -5 5 -13 10 -16 6 -3 10 -2 10 4 0 5 -4 13 -10 16 -5 3
-10 2 -10 -4z"/>
<path d="M668 629 c-7 -4 -16 -5 -21 -2 -5 3 -8 0 -5 -7 6 -19 47 -20 58 -1 5
9 10 11 10 5 0 -25 -41 -37 -67 -21 -8 5 -13 3 -13 -6 0 -9 13 -13 44 -13 25
0 43 3 40 8 -3 4 -1 16 5 26 8 15 6 18 -15 18 -13 0 -30 -3 -36 -7z"/>
<path d="M1093 612 c0 -18 2 -20 13 -11 8 6 11 16 7 22 -3 6 -1 7 5 3 22 -13
52 -15 52 -3 0 7 -16 12 -39 12 -33 0 -38 -3 -38 -23z"/>
<path d="M1180 628 c0 -4 8 -12 18 -17 13 -8 14 -10 2 -11 -13 0 -13 -1 0 -10
22 -14 28 -12 26 8 0 10 6 16 17 16 9 -1 17 2 17 7 0 11 23 7 32 -5 10 -15 -3
-38 -19 -32 -9 4 -13 1 -10 -6 2 -7 11 -12 18 -10 11 3 12 1 2 -9 -11 -10 -16
-9 -28 7 -14 18 -16 18 -29 2 -17 -23 -27 -23 -19 -1 4 11 3 14 -6 9 -7 -5
-10 -15 -7 -23 3 -8 1 -11 -5 -8 -5 4 -7 16 -3 28 6 21 6 21 -13 4 -18 -15
-21 -16 -26 -3 -4 9 -1 18 5 22 7 4 8 3 4 -4 -10 -17 9 -15 23 2 9 11 6 13
-21 12 -18 -1 -39 -5 -45 -9 -17 -11 -16 -28 1 -21 17 6 29 -23 14 -32 -6 -4
-17 1 -24 10 -9 13 -13 14 -18 4 -3 -7 -3 -3 -1 9 7 25 -12 40 -28 23 -10 -10
-8 -11 8 -6 15 6 17 4 8 -5 -6 -6 -9 -17 -7 -24 3 -7 0 -16 -6 -20 -6 -4 -11
-1 -9 6 3 24 -1 39 -10 39 -11 0 -11 -50 0 -51 33 -5 96 -3 93 2 -2 4 3 10 12
13 23 9 31 7 15 -3 -9 -6 -10 -11 -2 -15 6 -4 11 -3 11 2 0 5 25 8 55 7 30 -1
55 2 55 7 0 4 5 8 11 8 5 0 7 -5 3 -11 -4 -8 0 -8 15 0 11 7 21 17 21 23 0 7
-4 7 -13 0 -10 -8 -13 -6 -14 8 -1 11 2 22 8 25 5 3 6 -1 3 -9 -4 -10 0 -14
13 -12 10 2 19 11 21 22 3 16 1 17 -7 4 -9 -12 -11 -11 -11 8 0 12 -5 22 -11
22 -5 0 -7 -6 -4 -12 4 -7 0 -6 -7 3 -10 12 -29 16 -71 15 -31 0 -57 -4 -57
-8z m65 -68 c3 -5 1 -10 -4 -10 -6 0 -11 5 -11 10 0 6 2 10 4 10 3 0 8 -4 11
-10z"/>
<path d="M87 616 c-4 -11 3 -21 23 -31 36 -19 39 -7 6 24 -20 19 -24 20 -29 7z"/>
<path d="M507 623 c-4 -6 -2 -13 5 -15 6 -2 8 -10 4 -17 -5 -8 -12 -9 -20 -2
-6 5 -21 9 -31 7 -26 -4 -29 -43 -4 -56 23 -13 29 -13 29 0 0 6 -3 9 -7 9 -27
-4 -33 1 -21 20 9 14 16 17 29 11 9 -5 20 -6 24 -2 5 4 5 1 0 -7 -5 -9 -4 -12
2 -8 6 4 14 0 17 -9 6 -15 4 -15 -18 0 -29 18 -46 21 -46 5 0 -5 5 -7 10 -4 6
3 13 0 15 -8 4 -9 21 -13 55 -12 58 1 67 7 43 26 -11 9 -14 10 -9 2 4 -7 3
-13 -3 -13 -5 0 -11 3 -14 8 -2 4 -2 0 0 -8 3 -13 2 -13 -10 0 -7 8 -19 21
-27 28 -13 11 -7 13 33 11 45 -3 66 8 67 32 0 8 -83 4 -98 -4 -5 -4 -12 -2
-14 5 -3 9 -6 9 -11 1z m86 -13 c-7 -8 -52 -7 -47 1 2 4 15 6 28 5 13 0 22 -3
19 -6z"/>
<path d="M1033 615 c-8 -22 5 -31 20 -15 10 10 9 11 -2 5 -9 -5 -12 -4 -8 3 4
5 17 8 29 4 14 -3 19 -2 14 6 -10 17 -46 15 -53 -3z"/>
<path d="M184 595 c9 -23 -3 -39 -19 -25 -9 7 -15 8 -19 1 -4 -6 -13 -8 -21
-4 -9 3 -15 -1 -15 -10 0 -12 8 -15 31 -12 18 3 34 7 37 9 2 3 13 1 23 -4 30
-16 32 6 3 35 -17 17 -24 20 -20 10z"/>
<path d="M300 601 c0 -7 -4 -10 -8 -7 -15 9 -33 -10 -26 -28 5 -13 13 -16 28
-11 11 4 29 7 39 8 9 1 17 4 17 8 0 4 15 6 33 5 23 -2 34 2 34 11 0 10 -9 12
-31 9 -17 -3 -34 0 -37 6 -5 7 -16 2 -31 -15 -18 -19 -28 -23 -39 -15 -12 8
-11 9 3 5 16 -6 35 20 23 31 -3 3 -5 0 -5 -7z"/>
<path d="M1230 598 c0 -5 11 -7 25 -5 37 5 41 16 6 15 -17 -1 -31 -5 -31 -10z"/>
<path d="M960 580 c-8 -5 -23 -7 -32 -4 -10 3 -18 0 -18 -6 0 -6 5 -8 13 -4 8
5 8 2 -2 -9 -15 -19 -1 -23 17 -5 14 14 45 20 36 7 -3 -5 0 -9 5 -9 6 0 11 5
11 12 0 6 3 8 7 4 5 -4 1 -13 -7 -19 -14 -11 -26 -57 -15 -57 3 0 12 17 20 37
11 25 12 40 5 47 -6 6 -10 6 -10 1 0 -6 -4 -5 -8 2 -5 8 -13 9 -22 3z"/>
<path d="M760 563 c0 -13 -2 -15 -9 -5 -6 10 -10 10 -21 -2 -7 -9 -17 -13 -23
-9 -22 13 -69 8 -78 -9 -6 -11 -5 -19 3 -24 6 -4 8 -3 5 3 -8 13 20 26 35 17
6 -4 14 0 19 7 6 9 7 4 3 -16 -6 -29 -6 -29 9 -9 11 14 26 20 47 19 25 -1 29
1 25 16 -5 13 -1 17 14 16 14 -1 17 -5 11 -11 -16 -16 -11 -30 5 -16 21 18 14
33 -18 37 -21 3 -27 -1 -27 -14z"/>
<path d="M830 571 c0 -5 -3 -17 -7 -27 -4 -12 -3 -15 5 -10 8 5 10 1 6 -11 -5
-16 -4 -15 11 2 8 11 11 21 6 23 -5 2 -7 10 -4 18 3 8 0 14 -6 14 -6 0 -11 -4
-11 -9z"/>
<path d="M880 545 c-17 -31 -11 -37 40 -40 38 -2 60 9 45 23 -3 3 -10 0 -14
-7 -6 -8 -11 -9 -15 -3 -3 6 3 13 14 17 11 4 18 11 14 16 -3 6 -12 5 -21 -3
-9 -7 -27 -13 -40 -13 -22 -1 -23 1 -8 11 9 7 12 15 7 18 -5 3 -15 -6 -22 -19z"/>
<path d="M1110 560 c0 -5 5 -10 11 -10 5 0 7 5 4 10 -3 6 -8 10 -11 10 -2 0
-4 -4 -4 -10z"/>
<path d="M390 553 c-8 -3 -22 -7 -30 -10 -8 -3 -26 -7 -39 -9 -13 -1 -26 -6
-30 -10 -3 -4 4 -4 17 -1 12 3 22 2 22 -2 0 -4 7 -8 15 -8 8 0 12 4 9 8 -3 5
18 7 45 5 28 -1 48 1 45 6 -9 14 -38 25 -54 21z"/>
<path d="M650 520 c0 -5 7 -10 16 -10 8 0 12 5 9 10 -3 6 -10 10 -16 10 -5 0
-9 -4 -9 -10z"/>
<path d="M715 520 c-3 -5 1 -10 10 -10 9 0 13 5 10 10 -3 6 -8 10 -10 10 -2 0
-7 -4 -10 -10z"/>
<path d="M750 517 c0 -5 9 -7 20 -4 11 3 20 1 20 -4 0 -4 7 -6 15 -3 26 10 16
21 -20 21 -19 0 -35 -5 -35 -10z"/>
</g>
</svg>
